<svg class="css-ze2te4 css-qd6ojx" viewBox="0 0 139.99999999999997 89.89098892409355"><g transform="translate(-7.778216811784189, -32.83237891915646) scale(1.5555639950303548)" class="css-1sfsc7a" fill="#ffd460"><g xmlns="http://www.w3.org/2000/svg"><g><path fill="none" d="M42.517,57.714c-0.73,0.082-1.5,0.008-2.238-0.246c-2.485,2.403-9.372,15.473-5.453,18.777    c0.5,0.205,1.033,0.336,1.574,0.353c0.664,0.016,1.181-0.197,1.755-0.377c-0.385-1.033-0.558-2.214-0.5-3.214    C37.917,67.775,39.45,62.051,42.517,57.714z"></path><path fill="none" d="M45.206,54.532c-0.156,0.033-0.336-0.123-0.303-0.311c0.443-2.845-0.599-5.633-2.116-8.019    c-1.394-2.189-6.305-6.117-8.15-1.968c-0.041,0.09-0.098,0.156-0.164,0.205c-0.845,3.034,0.738,5.879,2.468,8.454    c0.886,1.304,2.37,3.542,4.133,3.821C43,57.009,44.485,56.057,45.206,54.532z"></path><path fill="none" d="M32.357,36.624c0.541,0.033,1.017,0.172,1.418,0.402c-0.713-3.714-0.607-7.757,0.779-11.086    c0.369-0.886,0.877-1.73,1.5-2.402c-0.402-0.451-0.771-0.853-1.435-1.099c-0.385-0.139-0.779-0.197-1.181-0.205    c-1.689,0.738-2.714,1.304-2.919,3.772c-0.074,0.902,0.074,1.968,0.148,2.87c0.221,2.706,0.828,5.092,1.689,7.65    C32.374,36.567,32.357,36.591,32.357,36.624z"></path><path fill="none" d="M34.973,38.297c0.32,0.599,0.484,1.312,0.508,2.058c5.797,3.436,8.659-13.333,4.288-17.014    c-1.033-0.385-1.87-0.23-2.542,0.279c0.057,0.328-0.262,0.607-0.549,0.517c-1.853,2.165-2.23,7.183-2.247,8.741    C34.407,34.73,34.629,36.518,34.973,38.297z"></path><path fill="none" d="M7.832,39.15c-0.656,0.246-1.082,2.14-1.246,2.755c-0.148,0.525-0.451,1.369-0.377,1.91    c-0.008,0.156-0.025,0.303-0.041,0.459c0.385,0.066,0.73-0.008,1.05-0.213c0.812-0.312,1.542-0.902,2.271-1.369    c0.016-0.008,0.041-0.016,0.057-0.025c0-0.049,0-0.107,0-0.164c-0.771,0.123-1.55,0.107-2.321-0.008    c-0.238-0.033-0.18-0.443,0.057-0.418c0.763,0.09,1.501,0.049,2.238-0.09c0-0.164,0.008-0.336,0.016-0.5    c-0.508-0.18-1.009-0.369-1.517-0.558c-0.23-0.09-0.139-0.459,0.107-0.385c0.492,0.148,0.984,0.303,1.468,0.467    c0-0.016,0.008-0.025,0.008-0.041C9.267,40.429,8.488,38.896,7.832,39.15z"></path><path fill="none" d="M46.043,57.386c-0.607-0.131-1.197-0.189-1.861-0.156c-0.008,0-0.008,0-0.016,0    c-0.238,0.123-0.5,0.221-0.771,0.303c-1.517,2.681-2.681,5.477-3.428,8.479c-0.385,1.55-3.091,12.144,1.558,11.816    c3.928-1.361,4.018-5.199,4.608-8.634c0.525-3.034,2.083-7.79,1.156-10.946C46.789,58.025,46.371,57.747,46.043,57.386z"></path><path fill="none" d="M31.857,37.854c-0.066,0.033-0.139,0.049-0.221,0.049c-3.296-0.115-6.584-0.508-9.872-0.697    c-2.132-0.123-4.493-0.385-6.584,0.098c-3.337,0.779-5.92,6.076-1.927,8.052c0.033,0.016,0.033,0.049,0.041,0.082    c6.059-0.451,12.242-0.467,18.31-0.418c0.107,0,0.197,0.025,0.271,0.066c0.787-0.377,1.41-0.984,1.845-1.722    c0.074-0.18,0.156-0.344,0.246-0.5c0.115-0.254,0.213-0.525,0.279-0.803C34.711,40.199,33.989,37.953,31.857,37.854z"></path><path fill="none" d="M78.734,51.425c-4.772-1.706-10.75-1.55-15.751-1.402c-4.838,0.139-12.783-0.148-16.481,3.788    c-0.057,0.418-0.156,0.804-0.295,1.164c0.008,0.025,0.025,0.041,0.033,0.066c0.139,0.672,0.656,1.205,1.435,1.624    c0.098,0.008,0.197,0.049,0.279,0.131c4.321,2.017,15.358,1.082,17.949,1.009c2.665-0.074,5.33-0.23,7.986-0.443    c1.255-0.098,2.804,0.025,3.985-0.369C81.145,55.877,81.834,52.54,78.734,51.425z"></path><path fill="none" d="M91.395,41.142c-0.033-0.008-0.066-0.025-0.098-0.049c-2.476-0.246-4.666,3.436-5.789,5.108    c-1.296,1.919-2.189,3.895-2.46,6.141c0.377,0.508,0.623,1.091,0.705,1.755c0.033,0.238,0.025,0.451,0.008,0.664    c3.304,1.091,5.363-2.509,6.715-4.928C91.641,47.768,95.027,42.225,91.395,41.142z"></path><path fill="none" d="M92.157,40.24c0.025,0.008,0.049,0.016,0.066,0.025c0.197,0.107,0.262,0.287,0.246,0.467    c0.213,0.074,0.402,0.164,0.566,0.271c0.697-0.992,1.123-1.984,1.017-3.157C93.223,38.502,92.731,39.314,92.157,40.24z"></path><path fill="none" d="M83.367,55.984c-0.394,0.648-1.033,1.132-1.771,1.476c-1.05,1.96-1.197,4.124-1.025,6.56    c0.221,2.927,0.746,11.438,6.051,10.496c0.016,0,0.025,0.008,0.041,0.008c3.313-1.533,1.353-8.413,0.771-10.766    C86.844,61.387,86.188,56.845,83.367,55.984z"></path><path fill="none" d="M80.21,57.96c-0.262,0.066-0.525,0.123-0.779,0.164c-0.943,2.452-1.64,4.912-1.96,7.527    c-0.287,2.386-0.869,6.56,0.976,8.577c0.303,0.148,0.623,0.23,1.025,0.221c0.681-0.025,1.615-0.369,2.042-0.927    c0.098-0.131,0.246-0.139,0.353-0.082c-1.074-1.763-1.574-4.215-1.853-6.002C79.587,64.667,78.997,60.772,80.21,57.96z"></path><path d="M94.83,36.936c-0.074-0.287-0.426-0.435-0.672-0.279c-1.164,0.713-2.304,1.96-2.501,3.362    c-2.648-0.894-4.674,2.173-6.109,4.075c-1.697,2.247-3.149,4.682-3.288,7.421c-3.6-2.985-12.554-2.755-15.489-2.804    c-5.494-0.09-16.284-0.828-20.425,4.206c-0.148-0.09-0.336-0.115-0.484-0.049c0.607-3.477-1.705-7.79-4.182-9.881    c-0.779-0.664-1.902-1.205-3.075-1.468c1.919-1.173,3.518-4.001,3.969-5.682c0.943-3.567,1.353-9.577-1.656-12.406    c0.09-0.172,0.074-0.41-0.148-0.557c-1.46-0.984-2.796-0.812-3.895-0.057c-0.549-0.804-1.582-1.255-2.632-1.345    c-0.074-0.221-0.303-0.418-0.574-0.353c-2.649,0.664-4.206,2.075-4.272,4.887c-0.09,3.493,0.418,7.699,2.501,10.61    c-0.164,0-0.32,0.008-0.492,0.033c-0.082,0.016-0.156,0.041-0.213,0.082c-3.862-0.533-7.822-0.812-11.717-0.845    c-3.067-0.025-6.502,0.115-8.716,2.558c-0.361,0.402-0.64,0.885-0.853,1.418c-0.344-0.935-1.091-1.886-1.96-2.066    c-1.369-0.279-2.017,2.435-2.312,3.362c-0.295,0.951-1.312,3.755,0.082,4.329c1.189,0.484,3.083-0.886,4.092-1.738    c0.393,1.033,1.181,1.788,2.411,1.861c-0.254,0.221-0.18,0.705,0.254,0.73c6.33,0.328,12.791,0.139,19.13-0.107    c0.287-0.008,0.467-0.18,0.541-0.385c0.426-0.131,0.804-0.328,1.148-0.574c-0.754,3.952,2.394,8.815,5.182,11.184    c0.32,0.271,0.656,0.492,1.009,0.672c-3.567,2.665-4.748,8.052-6.051,12.062c-0.902,2.763-2.206,7.035,1.624,8.077    c0.156,0.041,0.279-0.016,0.369-0.115c1.017,0.402,2.214,0.451,3.091-0.123c0.853,1.599,2.329,2.542,4.452,1.271    c0.082-0.049,0.139-0.131,0.164-0.213c2.14-0.672,3.124-3.345,3.6-5.641c0.828-3.928,2.845-9.511,1.91-13.784    c5.158,1.115,11.225,0.664,16.457,0.541c4.305-0.107,8.749-0.23,13.029-0.869c-1.361,3.6-2.083,7.404-1.968,11.266    c0.049,1.443,0.074,3.099,0.902,4.174c-0.156,0.156-0.23,0.402-0.098,0.607c0.558,0.877,1.73,1.197,2.714,1.099    c1.107-0.115,1.853-0.681,2.288-1.689c0.033-0.057,0.033-0.115,0.025-0.164c1.033,1.566,2.55,2.501,4.862,1.722    c0.066-0.025,0.123-0.066,0.164-0.098c2.599-0.836,2.796-5.395,2.386-7.937c-0.459-2.845-1-8.429-3.427-11.127    c2.837-0.681,5.174-5.018,6.232-7.142c0.845-1.714,2.657-5.535,1.451-7.421C94.929,40.486,95.24,38.518,94.83,36.936z     M9.595,41.011c-0.484-0.164-0.976-0.32-1.468-0.467c-0.246-0.074-0.336,0.295-0.107,0.385c0.508,0.189,1.009,0.377,1.517,0.558    c-0.008,0.164-0.016,0.336-0.016,0.5c-0.738,0.139-1.476,0.18-2.238,0.09c-0.238-0.025-0.295,0.385-0.057,0.418    c0.771,0.115,1.55,0.131,2.321,0.008c0,0.057,0,0.115,0,0.164c-0.016,0.008-0.041,0.016-0.057,0.025    c-0.73,0.467-1.459,1.058-2.271,1.369c-0.32,0.205-0.664,0.279-1.05,0.213c0.016-0.156,0.033-0.303,0.041-0.459    c-0.074-0.541,0.23-1.386,0.377-1.91c0.164-0.615,0.59-2.509,1.246-2.755c0.656-0.254,1.435,1.279,1.771,1.82    C9.603,40.986,9.595,40.995,9.595,41.011z M36.679,24.136c0.287,0.09,0.607-0.189,0.549-0.517    c0.672-0.508,1.509-0.664,2.542-0.279c4.37,3.682,1.509,20.45-4.288,17.014c-0.025-0.746-0.189-1.46-0.508-2.058    c-0.344-1.779-0.566-3.567-0.541-5.42C34.448,31.319,34.825,26.301,36.679,24.136z M30.668,28.876    c-0.074-0.902-0.221-1.968-0.148-2.87c0.205-2.468,1.23-3.034,2.919-3.772c0.402,0.008,0.795,0.066,1.181,0.205    c0.664,0.246,1.033,0.648,1.435,1.099c-0.623,0.672-1.132,1.517-1.5,2.402c-1.386,3.329-1.492,7.372-0.779,11.086    c-0.402-0.23-0.877-0.369-1.418-0.402c0-0.033,0.016-0.057,0-0.098C31.496,33.967,30.89,31.582,30.668,28.876z M33.964,42.864    c-0.09,0.156-0.172,0.32-0.246,0.5c-0.435,0.738-1.058,1.345-1.845,1.722c-0.074-0.041-0.164-0.066-0.271-0.066    c-6.068-0.049-12.25-0.033-18.31,0.418c-0.008-0.033-0.008-0.066-0.041-0.082c-3.993-1.976-1.41-7.273,1.927-8.052    c2.091-0.484,4.452-0.221,6.584-0.098c3.288,0.189,6.576,0.582,9.872,0.697c0.082,0,0.156-0.016,0.221-0.049    c2.132,0.098,2.854,2.345,2.386,4.206C34.178,42.339,34.079,42.61,33.964,42.864z M36.941,52.892    c-1.73-2.575-3.313-5.42-2.468-8.454c0.066-0.049,0.123-0.115,0.164-0.205c1.845-4.149,6.757-0.221,8.15,1.968    c1.517,2.386,2.558,5.174,2.116,8.019c-0.033,0.189,0.148,0.344,0.303,0.311c-0.722,1.525-2.206,2.476-4.133,2.181    C39.311,56.435,37.827,54.196,36.941,52.892z M38.155,76.22c-0.574,0.18-1.091,0.394-1.755,0.377    c-0.541-0.016-1.074-0.148-1.574-0.353c-3.92-3.304,2.968-16.375,5.453-18.777c0.738,0.254,1.509,0.328,2.238,0.246    c-3.067,4.338-4.6,10.061-4.862,15.292C37.597,74.006,37.769,75.187,38.155,76.22z M46.133,69.193    c-0.59,3.436-0.681,7.273-4.608,8.634c-4.649,0.328-1.943-10.266-1.558-11.816c0.746-3.001,1.911-5.797,3.428-8.479    c0.271-0.082,0.533-0.18,0.771-0.303c0.008,0,0.008,0,0.016,0c0.664-0.033,1.255,0.025,1.861,0.156    c0.328,0.361,0.746,0.64,1.246,0.861C48.215,61.404,46.658,66.159,46.133,69.193z M77.874,56.992    c-1.181,0.394-2.731,0.271-3.985,0.369c-2.657,0.213-5.322,0.369-7.986,0.443c-2.591,0.074-13.628,1.009-17.949-1.009    c-0.082-0.082-0.18-0.123-0.279-0.131c-0.779-0.418-1.296-0.951-1.435-1.624c-0.008-0.025-0.025-0.041-0.033-0.066    c0.139-0.361,0.238-0.746,0.295-1.164c3.698-3.936,11.644-3.649,16.481-3.788c5.002-0.148,10.979-0.303,15.751,1.402    C81.834,52.54,81.145,55.877,77.874,56.992z M81.514,73.523c-0.426,0.558-1.361,0.902-2.042,0.927    c-0.402,0.008-0.721-0.074-1.025-0.221c-1.845-2.017-1.263-6.191-0.976-8.577c0.32-2.616,1.017-5.076,1.96-7.527    c0.254-0.041,0.517-0.098,0.779-0.164c-1.214,2.812-0.623,6.707-0.197,9.479c0.279,1.787,0.779,4.239,1.853,6.002    C81.76,73.383,81.613,73.391,81.514,73.523z M87.434,63.757c0.582,2.353,2.542,9.233-0.771,10.766    c-0.016,0-0.025-0.008-0.041-0.008c-5.305,0.943-5.83-7.568-6.051-10.496c-0.172-2.435-0.025-4.6,1.025-6.56    c0.738-0.344,1.378-0.828,1.771-1.476C86.188,56.845,86.844,61.387,87.434,63.757z M90.476,49.834    c-1.353,2.419-3.411,6.019-6.715,4.928c0.016-0.213,0.025-0.426-0.008-0.664c-0.082-0.664-0.328-1.246-0.705-1.755    c0.271-2.247,1.164-4.223,2.46-6.141c1.123-1.673,3.313-5.354,5.789-5.108c0.033,0.025,0.066,0.041,0.098,0.049    C95.027,42.225,91.641,47.768,90.476,49.834z M92.469,40.732c0.016-0.18-0.049-0.361-0.246-0.467    c-0.016-0.008-0.041-0.016-0.066-0.025c0.574-0.927,1.066-1.738,1.894-2.394c0.107,1.173-0.32,2.165-1.017,3.157    C92.871,40.896,92.682,40.806,92.469,40.732z"></path></g></g></g></svg>